<svg width="88" height="24" viewBox="0 0 88 24" fill="none" xmlns="http://www.w3.org/2000/svg">
<path d="M18.7812 0.25V23H14.0938L4.95312 7.75V23H0.265625V0.25H4.95312L14.1094 15.5156V0.25H18.7812ZM30.3594 23.3125C29.0469 23.3125 27.8698 23.1042 26.8281 22.6875C25.7865 22.2604 24.901 21.6719 24.1719 20.9219C23.4531 20.1719 22.901 19.3021 22.5156 18.3125C22.1302 17.3125 21.9375 16.25 21.9375 15.125V14.5C21.9375 13.2188 22.1198 12.0469 22.4844 10.9844C22.849 9.92188 23.3698 9 24.0469 8.21875C24.7344 7.4375 25.5677 6.83854 26.5469 6.42188C27.526 5.99479 28.6302 5.78125 29.8594 5.78125C31.0573 5.78125 32.1198 5.97917 33.0469 6.375C33.974 6.77083 34.75 7.33333 35.375 8.0625C36.0104 8.79167 36.4896 9.66667 36.8125 10.6875C37.1354 11.6979 37.2969 12.8229 37.2969 14.0625V15.9375H23.8594V12.9375H32.875V12.5938C32.875 11.9688 32.7604 11.4115 32.5312 10.9219C32.3125 10.4219 31.9792 10.026 31.5312 9.73438C31.0833 9.44271 30.5104 9.29688 29.8125 9.29688C29.2188 9.29688 28.7083 9.42708 28.2812 9.6875C27.8542 9.94792 27.5052 10.3125 27.2344 10.7812C26.974 11.25 26.776 11.8021 26.6406 12.4375C26.5156 13.0625 26.4531 13.75 26.4531 14.5V15.125C26.4531 15.8021 26.5469 16.4271 26.7344 17C26.9323 17.5729 27.2083 18.0677 27.5625 18.4844C27.9271 18.901 28.3646 19.224 28.875 19.4531C29.3958 19.6823 29.9844 19.7969 30.6406 19.7969C31.4531 19.7969 32.2083 19.6406 32.9062 19.3281C33.6146 19.0052 34.224 18.5208 34.7344 17.875L36.9219 20.25C36.5677 20.7604 36.0833 21.25 35.4688 21.7188C34.8646 22.1875 34.1354 22.5729 33.2812 22.875C32.4271 23.1667 31.4531 23.3125 30.3594 23.3125ZM43.4844 6.09375L46.2812 11.2344L49.1562 6.09375H53.9531L49.1719 14.3594L54.1719 23H49.3594L46.3125 17.5625L43.2656 23H38.4531L43.4531 14.3594L38.6719 6.09375H43.4844ZM66.1406 18.9531V6.09375H70.6406V23H66.4062L66.1406 18.9531ZM66.6406 15.4844L67.9688 15.4531C67.9688 16.5781 67.8385 17.625 67.5781 18.5938C67.3177 19.5521 66.9271 20.3854 66.4062 21.0938C65.8854 21.7917 65.2292 22.3385 64.4375 22.7344C63.6458 23.1198 62.7135 23.3125 61.6406 23.3125C60.8177 23.3125 60.0573 23.1979 59.3594 22.9688C58.6719 22.7292 58.0781 22.3594 57.5781 21.8594C57.0885 21.349 56.7031 20.6979 56.4219 19.9062C56.151 19.1042 56.0156 18.1406 56.0156 17.0156V6.09375H60.5156V17.0469C60.5156 17.5469 60.5729 17.9688 60.6875 18.3125C60.8125 18.6562 60.9844 18.9375 61.2031 19.1562C61.4219 19.375 61.6771 19.5312 61.9688 19.625C62.2708 19.7188 62.6042 19.7656 62.9688 19.7656C63.8958 19.7656 64.625 19.5781 65.1562 19.2031C65.6979 18.8281 66.0781 18.3177 66.2969 17.6719C66.526 17.0156 66.6406 16.2865 66.6406 15.4844ZM83.2188 18.3281C83.2188 18.0052 83.125 17.7135 82.9375 17.4531C82.75 17.1927 82.401 16.9531 81.8906 16.7344C81.3906 16.5052 80.6667 16.2969 79.7188 16.1094C78.8646 15.9219 78.0677 15.6875 77.3281 15.4062C76.599 15.1146 75.9635 14.7656 75.4219 14.3594C74.8906 13.9531 74.474 13.474 74.1719 12.9219C73.8698 12.3594 73.7188 11.7188 73.7188 11C73.7188 10.2917 73.8698 9.625 74.1719 9C74.4844 8.375 74.9271 7.82292 75.5 7.34375C76.0833 6.85417 76.7917 6.47396 77.625 6.20312C78.4688 5.92188 79.4167 5.78125 80.4688 5.78125C81.9375 5.78125 83.1979 6.01562 84.25 6.48438C85.3125 6.95312 86.125 7.59896 86.6875 8.42188C87.2604 9.23438 87.5469 10.1615 87.5469 11.2031H83.0469C83.0469 10.7656 82.9531 10.375 82.7656 10.0312C82.5885 9.67708 82.3073 9.40104 81.9219 9.20312C81.5469 8.99479 81.0573 8.89062 80.4531 8.89062C79.9531 8.89062 79.5208 8.97917 79.1562 9.15625C78.7917 9.32292 78.5104 9.55208 78.3125 9.84375C78.125 10.125 78.0312 10.4375 78.0312 10.7812C78.0312 11.0417 78.0833 11.276 78.1875 11.4844C78.3021 11.6823 78.4844 11.8646 78.7344 12.0312C78.9844 12.1979 79.3073 12.3542 79.7031 12.5C80.1094 12.6354 80.6094 12.7604 81.2031 12.875C82.4219 13.125 83.5104 13.4531 84.4688 13.8594C85.4271 14.2552 86.1875 14.7969 86.75 15.4844C87.3125 16.1615 87.5938 17.0521 87.5938 18.1562C87.5938 18.9062 87.4271 19.5938 87.0938 20.2188C86.7604 20.8438 86.2812 21.3906 85.6562 21.8594C85.0312 22.3177 84.2812 22.6771 83.4062 22.9375C82.5417 23.1875 81.5677 23.3125 80.4844 23.3125C78.9115 23.3125 77.5781 23.0312 76.4844 22.4688C75.401 21.9062 74.5781 21.1927 74.0156 20.3281C73.4635 19.4531 73.1875 18.5573 73.1875 17.6406H77.4531C77.474 18.2552 77.6302 18.75 77.9219 19.125C78.224 19.5 78.6042 19.7708 79.0625 19.9375C79.5312 20.1042 80.0365 20.1875 80.5781 20.1875C81.1615 20.1875 81.6458 20.1094 82.0312 19.9531C82.4167 19.7865 82.7083 19.5677 82.9062 19.2969C83.1146 19.0156 83.2188 18.6927 83.2188 18.3281Z" fill="white"/>
</svg>
