<svg xmlns="http://www.w3.org/2000/svg" viewBox="0 0 202.31 134.02"><defs><style>.cls-1{fill:#42210b;}.cls-2{fill:#9d272d;}.cls-3{fill:#c1272d;}.cls-4{fill:#ce808f;}.cls-5{fill:#fff;}</style></defs><title>Fichier 1</title><g id="Calque_2" data-name="Calque 2"><g id="Calque_1-2" data-name="Calque 1"><path class="cls-1" d="M158.73,8.84a45,45,0,0,1,5.05-6.31c1-1.06,1.86-1.91,2.53-2.53l-.21,1.43c-1,6.83-1.62,11.21-1.69,11.2A88.91,88.91,0,0,0,165,3.16c0-.49,0-.92,0-1.27-.63.6-1.51,1.46-2.52,2.53C160.1,7,158.76,8.87,158.73,8.84Z"/><path class="cls-2" d="M166.83,14.11A2.65,2.65,0,0,1,165,17.38a2.56,2.56,0,0,1-3.32-1.87,2.59,2.59,0,0,1,1.76-3.27A2.63,2.63,0,0,1,166.83,14.11Z"/><path class="cls-3" d="M163.12,11.67a4.87,4.87,0,0,1-3.29,6,4.71,4.71,0,0,1-6.1-3.43,4.77,4.77,0,0,1,3.22-6A4.86,4.86,0,0,1,163.12,11.67Z"/><path class="cls-1" d="M72.33,18.55a2.66,2.66,0,0,1,2.18.92,3.31,3.31,0,0,1,.75,2.15A7.4,7.4,0,0,1,75,23.5a6.37,6.37,0,0,1-.64,1.61.26.26,0,0,1-.31.06c-.12,0-.17-.16-.17-.34a3,3,0,0,0-.28-2.66,3.08,3.08,0,0,0-2.73-1.09,12.88,12.88,0,0,0-5.73,1.33A16.17,16.17,0,0,0,59.83,27a40.82,40.82,0,0,0-5.06,8.54,100.63,100.63,0,0,0-4.84,13.38q.89.29,1.74.51l1.67.45c.23.18,0,.43-.65.75a4.74,4.74,0,0,1-2.36.41,7.9,7.9,0,0,1-.95-.34l-.44,1.67c-.17.57-.34,1.15-.52,1.74q-2.12,8,.89,8,2.67,0,5.19-3.82a.3.3,0,0,1,.41-.07c.14.09.18.25.14.48a24.78,24.78,0,0,1-1.68,2.29,19,19,0,0,1-1.94,2,12.82,12.82,0,0,1-2,1.5,3.6,3.6,0,0,1-1.81.58A2.84,2.84,0,0,1,44.77,63c-.53-1.39-.4-3.59.37-6.59Q46,52.9,47,49.9q-4-1.23-8.61-2.19a78.82,78.82,0,0,0-9.49-1.36,42.9,42.9,0,0,1-4.3,8.53,26.67,26.67,0,0,1-5.16,5.81A18.84,18.84,0,0,1,13.56,64,19.84,19.84,0,0,1,7.1,65.06a7.3,7.3,0,0,1-5.32-1.74A6.06,6.06,0,0,1,0,58.78a9.25,9.25,0,0,1,1.6-5.13,14.46,14.46,0,0,1,4.65-4.33,26.73,26.73,0,0,1,7.44-3,40.94,40.94,0,0,1,10.08-1.12h1.5q.75,0,1.5.06c.23-.63.43-1.28.62-1.94s.38-1.36.61-2.09q1.09-4,2.15-6.86a37.92,37.92,0,0,1,2.12-4.78,13.14,13.14,0,0,1,2.19-3.07,9.74,9.74,0,0,1,2.42-1.81,25,25,0,0,0-4.2-1.17,28.14,28.14,0,0,0-5.29-.47,14.37,14.37,0,0,0-5.5,1,9.08,9.08,0,0,0-3.62,2.6,8.7,8.7,0,0,0-1.78,3.75,10.9,10.9,0,0,0,0,4.44c-.05.23-.14.37-.28.41s-.27,0-.4-.2a11.85,11.85,0,0,1,0-5.43,9.72,9.72,0,0,1,2.38-4.47,12.1,12.1,0,0,1,4.68-3A19.71,19.71,0,0,1,29.85,21a22.66,22.66,0,0,1,5.46.65,31.65,31.65,0,0,1,4.78,1.53.59.59,0,0,1,0,.75,3.38,3.38,0,0,1-1.3.76,7.06,7.06,0,0,0-2.35,1.5,9.37,9.37,0,0,0-1.81,2.59,27.66,27.66,0,0,0-1.57,4c-.51,1.6-1.05,3.53-1.64,5.81-.37,1.18-.72,2.34-1.06,3.48s-.7,2.23-1.06,3.28c3,.23,6.08.59,9.22,1.09s6.15,1.1,9,1.78a76.52,76.52,0,0,1,5.29-12.53A54.33,54.33,0,0,1,59,26.4a27.18,27.18,0,0,1,6.63-5.84A13,13,0,0,1,72.33,18.55ZM9,63.42a17.19,17.19,0,0,0,5.53-.85,12.59,12.59,0,0,0,4.64-2.87,21.92,21.92,0,0,0,3.93-5.29,49.24,49.24,0,0,0,3.45-8.2,15.47,15.47,0,0,0-2-.14h-2A36.81,36.81,0,0,0,13.8,47a22.4,22.4,0,0,0-6.42,2.49,12.31,12.31,0,0,0-4,3.62,7.62,7.62,0,0,0-1.36,4.3,5.51,5.51,0,0,0,1.81,4.47A7.59,7.59,0,0,0,9,63.42Z"/><path class="cls-1" d="M66.73,47.58a3.16,3.16,0,0,1,2.73,1.22A5.37,5.37,0,0,1,70.35,52a13,13,0,0,1-.89,4.65,18,18,0,0,1-2.26,4.2,13.66,13.66,0,0,1-3,3,5.22,5.22,0,0,1-3,1.16,3,3,0,0,1-2.59-1.3,6.1,6.1,0,0,1-1-3.69A12.6,12.6,0,0,1,58.46,56a17.18,17.18,0,0,1,2-4.07,12.83,12.83,0,0,1,2.87-3.11A5.49,5.49,0,0,1,66.73,47.58Zm-4.1,15.36a3.44,3.44,0,0,0,2-.71,6.77,6.77,0,0,0,1.74-1.92,10.7,10.7,0,0,0,1.2-2.76A11.86,11.86,0,0,0,68,54.27,6.52,6.52,0,0,0,67.34,51a2.41,2.41,0,0,0-2.25-1.19,3.22,3.22,0,0,0-2,.72,6.43,6.43,0,0,0-1.68,1.91,10.3,10.3,0,0,0-1.12,2.8,13.32,13.32,0,0,0-.41,3.38Q59.9,62.94,62.63,62.94Z"/><path class="cls-1" d="M95.34,50.72q0-1.44-1-1.44a3.64,3.64,0,0,0-2.26,1,15,15,0,0,0-2.56,2.93,34.8,34.8,0,0,0-2.66,4.68,62.51,62.51,0,0,0-2.56,6.25,1.12,1.12,0,0,1-.72.65,2.94,2.94,0,0,1-1.13.24c-.54,0-.75-.21-.61-.61.27-.82.65-1.85,1.13-3.08s.93-2.49,1.36-3.79.81-2.51,1.13-3.65a10.63,10.63,0,0,0,.48-2.67c0-1.27-.39-1.91-1.16-1.91q-1.79,0-4.51,3.83a43.74,43.74,0,0,0-5.19,11,1.12,1.12,0,0,1-.62.65,2.25,2.25,0,0,1-1,.24,1,1,0,0,1-.55-.14c-.13-.09-.16-.25-.07-.47.37-1,.75-2.11,1.16-3.32s.82-2.42,1.23-3.65S76,55,76.32,53.86s.63-2.3.86-3.35c.22-.82.11-1.23-.35-1.23a2.05,2.05,0,0,0-1.29.75A15.44,15.44,0,0,0,74,51.81a.32.32,0,0,1-.41,0,.27.27,0,0,1-.07-.38,18.62,18.62,0,0,1,2.29-2.63,3.75,3.75,0,0,1,2.56-1.19,1,1,0,0,1,1.13.68,3.08,3.08,0,0,1,0,1.64c-.23,1-.45,1.92-.65,2.76a23.44,23.44,0,0,1-.79,2.56,21.66,21.66,0,0,1,3.93-5.53,6.18,6.18,0,0,1,4.27-2.11,1.65,1.65,0,0,1,1.33.61,2.6,2.6,0,0,1,.51,1.71,15.57,15.57,0,0,1-.27,2.87,19.32,19.32,0,0,1-.82,2.93,21.36,21.36,0,0,1,4.4-6,7.07,7.07,0,0,1,4.68-2.11,1.57,1.57,0,0,1,1.23.54,2.11,2.11,0,0,1,.48,1.44,8.24,8.24,0,0,1-.51,2.69c-.34,1-.72,2-1.13,3s-.79,2.09-1.13,3.11a9.19,9.19,0,0,0-.51,2.9c0,1.14.34,1.71,1,1.71s1.73-.75,3-2.25c.09-.09.19-.07.31.06a.42.42,0,0,1,0,.48,12.15,12.15,0,0,1-1,1.2c-.41.43-.83.84-1.27,1.23a6.52,6.52,0,0,1-1.4,1,3.22,3.22,0,0,1-1.43.38c-1,0-1.57-.87-1.57-2.6a12,12,0,0,1,.48-3.31c.31-1.11.67-2.18,1.06-3.21s.73-2,1-2.9A7.26,7.26,0,0,0,95.34,50.72Z"/><path class="cls-1" d="M113.3,50.58a2.6,2.6,0,0,1-.75,1.78,7,7,0,0,1-2,1.46,19.92,19.92,0,0,1-3,1.2c-1.11.36-2.28.71-3.51,1,0,.51-.08,1-.11,1.51s0,1,0,1.64a5.16,5.16,0,0,0,.75,2.86,2.38,2.38,0,0,0,2.12,1.17,5,5,0,0,0,2.56-.69,7.9,7.9,0,0,0,2.15-1.84c.18-.09.32-.07.41.07a.44.44,0,0,1,0,.47,10.87,10.87,0,0,1-2.9,2.7,6.64,6.64,0,0,1-3.66,1.13,3.88,3.88,0,0,1-2.9-1.16,4.73,4.73,0,0,1-1.13-3.42,13.9,13.9,0,0,1,.75-4.33,18.46,18.46,0,0,1,2-4.2,12.2,12.2,0,0,1,2.83-3.15,5.53,5.53,0,0,1,3.38-1.22,3.07,3.07,0,0,1,3.07,3Zm-4.5-1.23a3.69,3.69,0,0,0-2.8,1.37,8.75,8.75,0,0,0-1.78,4.3,13.73,13.73,0,0,0,4.82-1.4c1-.62,1.53-1.31,1.53-2.08a2.47,2.47,0,0,0-.48-1.57A1.56,1.56,0,0,0,108.8,49.35Z"/><path class="cls-1" d="M94.63,76.5a14.65,14.65,0,0,1,5.07,1.59,12.68,12.68,0,0,1,6,6.82,12.62,12.62,0,0,1,.78,4.39,14.35,14.35,0,0,1-1.07,5.56,13.33,13.33,0,0,1-3.06,4.48,14.18,14.18,0,0,1-4.87,3,18.56,18.56,0,0,1-6.6,1.1,10.57,10.57,0,0,1-7-2.14q-3.9,8.78-9.26,12.8a19.11,19.11,0,0,1-11.74,4,10.74,10.74,0,0,1-4.32-.81,9.83,9.83,0,0,1-3.12-2.12,8.24,8.24,0,0,1-1.88-3,10.47,10.47,0,0,1-.62-3.54,9.1,9.1,0,0,1,.36-2.5,11.79,11.79,0,0,1,1-2.41,9.61,9.61,0,0,1,1.53-2.08,7.07,7.07,0,0,1,2-1.46c.43-.09.56.07.39.46a6.86,6.86,0,0,0-2.83,2.79,7.84,7.84,0,0,0-.94,3.77,8.86,8.86,0,0,0,.68,3.51,8.27,8.27,0,0,0,2,2.86,9.16,9.16,0,0,0,3.19,1.92,12.82,12.82,0,0,0,4.35.68,18.39,18.39,0,0,0,5.49-.78,12.26,12.26,0,0,0,4.62-2.7,20.75,20.75,0,0,0,3.93-5.13,50.46,50.46,0,0,0,3.51-8.09A12.77,12.77,0,0,1,81,97.23a15.36,15.36,0,0,1-.84-2.73.52.52,0,0,1,.26-.36.23.23,0,0,1,.32.1,11.55,11.55,0,0,0,1.82,4.23c.44-1.35.89-2.84,1.37-4.49a64.63,64.63,0,0,1,3.28-9.52,22.25,22.25,0,0,1,4.26-6.53,5.33,5.33,0,0,0-.82-.07h-.87a20,20,0,0,0-11.67,3.32A17.31,17.31,0,0,0,71.43,91,.26.26,0,0,1,71,91a.86.86,0,0,1-.2-.68,20.63,20.63,0,0,1,7.35-10.27q5.13-3.76,13.58-3.77h.75a3.73,3.73,0,0,1,.68.07A13.7,13.7,0,0,1,98.34,74c.21,0,.33.07.35.2s-.07.24-.29.32a10.17,10.17,0,0,0-2,.82A9.46,9.46,0,0,0,94.63,76.5Zm-3.12,25.67a13,13,0,0,0,5-.91,11.45,11.45,0,0,0,3.84-2.5A11,11,0,0,0,102.76,95a12.54,12.54,0,0,0,.84-4.61,13.67,13.67,0,0,0-.68-4.32,11.07,11.07,0,0,0-2-3.64,11.88,11.88,0,0,0-3.31-2.73,14.08,14.08,0,0,0-4.52-1.6A22.23,22.23,0,0,0,90,83.45a53.94,53.94,0,0,0-2.47,7.41,72.88,72.88,0,0,1-3.12,9.43A12,12,0,0,0,91.51,102.17Z"/><path class="cls-1" d="M118.16,114.06c.08-.08.19-.08.32,0a.32.32,0,0,1,.13.39,11.7,11.7,0,0,1-2.69,2.8,4.26,4.26,0,0,1-2.25.91,1.08,1.08,0,0,1-.94-.59,3.66,3.66,0,0,1-.45-1.59,9.8,9.8,0,0,1,.06-2.27,17.64,17.64,0,0,1,.55-2.63,29.56,29.56,0,0,1-3.7,4.71,7.85,7.85,0,0,1-3.77,2.37,2.38,2.38,0,0,1-2-1.14,6.08,6.08,0,0,1-.82-3.54,11.13,11.13,0,0,1,.88-4.26,14.27,14.27,0,0,1,2.37-3.83,12,12,0,0,1,3.45-2.76,8.49,8.49,0,0,1,4.09-1,6.74,6.74,0,0,1,2,.26,5.19,5.19,0,0,1,1.56.78,4.19,4.19,0,0,1,1.07-.62,3.17,3.17,0,0,1,1.27-.29c.21,0,.28.1.19.32a19.85,19.85,0,0,0-2.56,4,25.32,25.32,0,0,0-1.66,4.29,22.37,22.37,0,0,0-.75,3.67,3.58,3.58,0,0,0,.23,2.18q.31.45,1.17,0A8,8,0,0,0,118.16,114.06ZM106.85,116a3.22,3.22,0,0,0,1.85-1,18.12,18.12,0,0,0,2.37-2.63,36,36,0,0,0,2.44-3.67,38.33,38.33,0,0,0,2.11-4.13,2.32,2.32,0,0,0-1.2-1.36,4.39,4.39,0,0,0-2.18-.52,5.27,5.27,0,0,0-2.69.74,7.62,7.62,0,0,0-2.25,2.08,11,11,0,0,0-1.56,3.16,13.06,13.06,0,0,0-.58,4,5.09,5.09,0,0,0,.49,2.38C106,115.64,106.37,116,106.85,116Z"/><path class="cls-1" d="M128.75,101.52a5,5,0,0,1,2.18.42c.58.29.88.6.88,1a5.29,5.29,0,0,1-.3,1.62,8.57,8.57,0,0,1-.61,1.5.33.33,0,0,1-.36,0c-.15-.07-.21-.16-.16-.29a4,4,0,0,0,.26-1,2.68,2.68,0,0,0-.07-1,1.65,1.65,0,0,0-1.82-1.3A2.47,2.47,0,0,0,127,103a2.58,2.58,0,0,0-.68,2,4,4,0,0,0,.55,2,21,21,0,0,0,1.24,1.88,16.21,16.21,0,0,1,1.23,2,5.05,5.05,0,0,1,.56,2.37,4.7,4.7,0,0,1-1.47,3.51,6,6,0,0,1-4.38,1.43,6.8,6.8,0,0,1-3.32-.72c-.87-.47-1.3-1-1.3-1.49a3.94,3.94,0,0,1,.72-1.76,6.85,6.85,0,0,1,1.62-1.88.24.24,0,0,1,.36.06.29.29,0,0,1,0,.39,3.32,3.32,0,0,0-.78,1.21,2,2,0,0,0-.13,1.2,2.42,2.42,0,0,0,1,1.66,3.31,3.31,0,0,0,1.92.55,3.63,3.63,0,0,0,2.63-.91,3.11,3.11,0,0,0,.94-2.34,4.77,4.77,0,0,0-.58-2.31c-.39-.71-.82-1.4-1.27-2.08s-.87-1.34-1.24-2a4.55,4.55,0,0,1-.55-2.18,3.72,3.72,0,0,1,1.27-2.86A4.82,4.82,0,0,1,128.75,101.52Z"/><path class="cls-1" d="M145.32,101.78c.22.09.31.22.26.39s-.24.28-.58.33l-2.31.13c-.84,0-1.7.1-2.57.19a64.34,64.34,0,0,0-2.14,6.24,19.08,19.08,0,0,0-.85,4.94c0,1.47.57,2.21,1.69,2.21s2.37-1,3.71-3a.29.29,0,0,1,.39,0,.48.48,0,0,1,.13.49,13,13,0,0,1-1.33,1.72,11.56,11.56,0,0,1-1.53,1.4,9.86,9.86,0,0,1-1.5.94,2.72,2.72,0,0,1-1.17.36,2.5,2.5,0,0,1-2.11-.88,3.36,3.36,0,0,1-.68-2.11,20.58,20.58,0,0,1,.91-5.39,68.82,68.82,0,0,1,2.27-6.7l-1.62.26-1.5.26c-.21,0-.27-.15-.16-.32a1.63,1.63,0,0,1,.59-.52,5.48,5.48,0,0,1,1-.49,3.11,3.11,0,0,1,1.11-.23,3.15,3.15,0,0,1,.55-.06h.49c.61-1.35,1.21-2.64,1.82-3.87s1.21-2.37,1.82-3.41a4.63,4.63,0,0,1,.88-.69,3.24,3.24,0,0,1,.94-.39,2.42,2.42,0,0,1,.71-.06c.18,0,.24.1.2.23a41.43,41.43,0,0,0-2.18,3.77c-.71,1.38-1.4,2.81-2.05,4.29.78,0,1.56,0,2.34,0S144.46,101.78,145.32,101.78Z"/><path class="cls-1" d="M150.91,103.34a15.61,15.61,0,0,1-.19,2.28c-.13.86-.31,1.73-.52,2.6a17.81,17.81,0,0,1,2.86-4.91,4.48,4.48,0,0,1,3.38-1.79,2.31,2.31,0,0,1,1.3.39,1.25,1.25,0,0,1,.58,1.11,3.28,3.28,0,0,1-.39,1.33,4.44,4.44,0,0,1-.78,1.2c-.26.17-.39.11-.39-.19,0-.74-.5-1.11-1.49-1.11-1.52,0-2.88,1.14-4.1,3.41a46.37,46.37,0,0,0-3.44,9.46,1.08,1.08,0,0,1-.88.84,5.21,5.21,0,0,1-1.27.2c-.47,0-.58-.24-.32-.72.39-.91.76-1.89,1.1-3s.69-2.14,1-3.22.6-2.14.81-3.18.39-2,.52-2.86c.18-1.3,0-2-.65-2a2,2,0,0,0-1.2.58,8.81,8.81,0,0,0-1.27,1.37.39.39,0,0,1-.45,0,.32.32,0,0,1-.07-.42,15.39,15.39,0,0,1,2.18-2.24,3.62,3.62,0,0,1,2.24-1C150.44,101.52,150.91,102.13,150.91,103.34Z"/><path class="cls-1" d="M171.51,103.08a1.16,1.16,0,0,1,.33-.42,7.49,7.49,0,0,1,.62-.49,4,4,0,0,1,.71-.42,1.43,1.43,0,0,1,.55-.16c.39,0,.55.15.46.45-1,2.69-1.89,5.3-2.8,7.83s-1.88,5.17-2.92,7.9a42.87,42.87,0,0,1-3.74,7.64,23.83,23.83,0,0,1-4.16,5,14,14,0,0,1-4.51,2.76,14.17,14.17,0,0,1-4.81.85A7.32,7.32,0,0,1,146,132.3a5.68,5.68,0,0,1-1.78-4.26,5.75,5.75,0,0,1,.61-2.47,6.28,6.28,0,0,1,1.92-2.28c.13-.08.25,0,.36.13s.12.31,0,.39a4.27,4.27,0,0,0-1,2.8,6.26,6.26,0,0,0,1.56,4.42,6.18,6.18,0,0,0,4.75,1.69,11.86,11.86,0,0,0,4.19-.72,9.71,9.71,0,0,0,3.64-2.53,21.64,21.64,0,0,0,3.31-4.88,66,66,0,0,0,3.29-7.67c.47-1.43.94-2.75,1.39-4s.92-2.47,1.4-3.77a31.4,31.4,0,0,1-5.17,6.37c-1.8,1.65-3.39,2.53-4.77,2.66a1.3,1.3,0,0,1-1.24-.78,4.84,4.84,0,0,1-.39-2.14,14.43,14.43,0,0,1,.26-2.57,21.65,21.65,0,0,1,.75-2.89,22.29,22.29,0,0,1,1.23-3,29.51,29.51,0,0,1,1.66-3c-.48.35-1,.73-1.49,1.14a13.48,13.48,0,0,0-1.3,1.14c-.13.08-.25,0-.36-.1a.33.33,0,0,1,0-.42,22.45,22.45,0,0,1,2.47-2.08,22.13,22.13,0,0,1,3.05-2c.43,0,.61.19.52.58a19.93,19.93,0,0,0-1.79,2.89,30.25,30.25,0,0,0-1.39,3.19,21.44,21.44,0,0,0-.91,3.15,13.64,13.64,0,0,0-.33,2.79c0,1.22.41,1.82,1.24,1.82a4.06,4.06,0,0,0,2.5-1.39,26.07,26.07,0,0,0,2.92-3.38,34.82,34.82,0,0,0,2.67-4.23A27.42,27.42,0,0,0,171.51,103.08Z"/><path class="cls-4" d="M134.25,36.53c4.91-3.24,7.92,1.41,22.36,1.08,6.1-.14,10.54-1.4,19.8-.87,4.28.25,7.8.74,9.93,3.4s1.94,6,1.9,7.59c-.1,3.7-1.37,6-2.48,8.71-3.7,9-3.26,16.4-3.69,16.35s-1.54-8.12.48-17.47c.75-3.47,2-7.33,0-10.75a9.34,9.34,0,0,0-3.17-3.17,11.65,11.65,0,0,0-8.85-1.26A40.34,40.34,0,0,1,161,41.4a50.35,50.35,0,0,1-8.23-.63,80.27,80.27,0,0,0-8.22-1.26,36.29,36.29,0,0,0-5.06,0,8.15,8.15,0,0,0-3.37,1.36,9,9,0,0,0-3,3.7c-2.62,5.53-2.54,13.26-2.53,13.91.14,7.76,1.37,12.25,1,12.33s-3.24-6.3-3.55-14.22C128,53,127.54,40.94,134.25,36.53Z"/><path class="cls-4" d="M148.34,17.19c2.33-1.54,3.77.67,10.64.52,2.9-.07,5-.67,9.41-.42,2,.12,3.72.36,4.73,1.62a5.4,5.4,0,0,1,.9,3.61,10.54,10.54,0,0,1-1.17,4.15c-1.77,4.27-1.56,7.8-1.76,7.78s-.74-3.87.23-8.32c.35-1.65.94-3.48,0-5.11a4.51,4.51,0,0,0-1.51-1.51,5.57,5.57,0,0,0-4.21-.6,19.31,19.31,0,0,1-4.52.6,24.24,24.24,0,0,1-3.91-.3,36.52,36.52,0,0,0-3.91-.6,17.21,17.21,0,0,0-2.41,0,3.84,3.84,0,0,0-1.6.65A4.1,4.1,0,0,0,147.84,21a17.31,17.31,0,0,0-1.21,6.62c.07,3.69.65,5.83.49,5.86s-1.54-3-1.69-6.76C145.36,25,145.14,19.29,148.34,17.19Z"/><path class="cls-5" d="M156.2,9.47a4.28,4.28,0,0,0-1.44,4.31,3.91,3.91,0,0,0,1.44,2,8.2,8.2,0,0,1-.63-2.53A8.06,8.06,0,0,1,156.2,9.47Z"/><path class="cls-5" d="M161.09,10.21c.31.53.34,1.09.08,1.26s-.74-.1-1.06-.68-.35-1.08-.09-1.25S160.77,9.65,161.09,10.21Z"/><path class="cls-5" d="M165.81,13.29c.27.33.33.73.14.91s-.59.08-.88-.27-.35-.72-.15-.91S165.52,13,165.81,13.29Z"/><path class="cls-4" d="M119.92,80a19,19,0,0,1,2.53-1.26c3.32-1.36,5.91-1.27,10.12-1.27,9.86,0,10.12-.44,14.26.11a55.56,55.56,0,0,1,6.2,1.18h0a26.12,26.12,0,0,0,5.35.46c4-.1,23.32-4.89,31.76-3a18.77,18.77,0,0,1,6.58,3,11.43,11.43,0,0,1,1.36,1.15,5.19,5.19,0,0,1,1.1,1.41,4.34,4.34,0,0,1,.24.6s.86,2.27,1.47,4.63a52.15,52.15,0,0,1,1.27,7.59c.61,7.24-.76,12.9-1.5,24.14-.53,8.12-.37,13.56-2.57,14.18a1.85,1.85,0,0,1-1.63-.36c-1.34-1.19.23-4.5,1.27-8.22,1.14-4.13,1.18-7.39,1.26-13.92a87,87,0,0,0-.63-10.76c-1.18-11.74-3-14.65-5.06-16.44a11.61,11.61,0,0,0-2.22-1.5c-8.83-4.71-19.08,1.9-33.84,1.5C146.15,82.85,146,79,135.73,80c-7.62.78-15.56,3.73-16.44,1.9C119,81.35,119.48,80.58,119.92,80Z"/></g></g></svg>