<svg xmlns="http://www.w3.org/2000/svg" viewBox="0 0 311.87 104.48"><defs><style>.cls-1{fill:#353535;}</style></defs><title>Fichier 9</title><g id="Calque_2" data-name="Calque 2"><g id="Calque_1-2" data-name="Calque 1"><path class="cls-1" d="M22.47.3q10,10.86,19.35,21.21T60.28,41.82L76.05,59.16q8,8.85,15.63,17.12t14.21,15.55q6.63,7.29,11.39,12.65H94.81q-.75-.9-5.29-6t-11.83-13Q70.4,77.69,61.1,67.42T41.45,45.91q-10.35-11.23-21-23L0,.29ZM74.41,0q.15.15,3.35,3.61l8.34,9q5.13,5.53,11.61,12.68T111,39.81q6.78,7.36,13.25,14.44T135.73,66.9l11.32,12.43c1.18-1.29,3-3.3,5.5-6s5.36-5.88,8.63-9.45,6.8-7.42,10.57-11.54,7.59-8.31,11.46-12.57,7.64-8.41,11.31-12.43l10.12-11.09H112.22L97.33.15V0L242.8.66,147.05,104.18l-6.18-6.62Q136.63,93,131,86.77T118.39,73q-6.92-7.52-14.21-15.55T89.37,41.23Q81.85,33,75,25.45T62.14,11.31Q56.11,4.77,51.79,0Z"/><path class="cls-1" d="M127.22,16.22l0-15.93L311.87,0V16.37H227.48v87.81h-17V16.37Z"/></g></g></svg>