<svg width="714" height="95" viewBox="0 0 714 95" fill="none" xmlns="http://www.w3.org/2000/svg">
<path d="M18.6602 20.1924V56.6279H36.8779C39.3747 56.6279 41.7233 56.1624 43.9238 55.2314C46.1243 54.2581 48.0498 52.9463 49.7002 51.2959C51.3506 49.6455 52.6413 47.72 53.5723 45.5195C54.5456 43.2767 55.0322 40.9069 55.0322 38.4101C55.0322 35.9134 54.5456 33.5648 53.5723 31.3642C52.6413 29.1214 51.3506 27.1748 49.7002 25.5244C48.0498 23.874 46.1243 22.5833 43.9238 21.6523C41.7233 20.679 39.3747 20.1924 36.8779 20.1924H18.6602ZM18.6602 93H0.442383V1.9746H36.8779C40.221 1.9746 43.4372 2.41893 46.5264 3.30761C49.6156 4.15396 52.4932 5.38117 55.1592 6.98925C57.8675 8.555 60.3219 10.4593 62.5225 12.7021C64.7653 14.9027 66.6696 17.3571 68.2354 20.0654C69.8434 22.7738 71.0706 25.6725 71.917 28.7617C72.8057 31.8509 73.25 35.067 73.25 38.4101C73.25 43.4036 72.2979 48.1221 70.3936 52.5654C68.4893 56.9665 65.8867 60.8174 62.5859 64.1182C59.2852 67.4189 55.4131 70.0215 50.9697 71.9258C46.5687 73.8301 41.8714 74.7822 36.8779 74.7822H18.6602V93ZM173.162 47.8682C173.162 52.1846 172.591 56.3529 171.448 60.373C170.348 64.3509 168.782 68.096 166.751 71.6084C164.72 75.0784 162.265 78.2523 159.388 81.1299C156.51 84.0075 153.336 86.4831 149.866 88.5566C146.396 90.5879 142.651 92.1536 138.631 93.2539C134.611 94.3965 130.442 94.9678 126.126 94.9678C121.81 94.9678 117.641 94.3965 113.621 93.2539C109.643 92.1536 105.898 90.5879 102.386 88.5566C98.9157 86.4831 95.7419 84.0075 92.8643 81.1299C89.9867 78.2523 87.5111 75.0784 85.4375 71.6084C83.4062 68.096 81.8193 64.3509 80.6768 60.373C79.5765 56.3529 79.0264 52.1846 79.0264 47.8682C79.0264 43.5517 79.5765 39.3835 80.6768 35.3633C81.8193 31.3431 83.4062 27.598 85.4375 24.1279C87.5111 20.6579 89.9867 17.484 92.8643 14.6064C95.7419 11.7288 98.9157 9.2744 102.386 7.24315C105.898 5.2119 109.643 3.64615 113.621 2.54589C117.641 1.40331 121.81 0.83202 126.126 0.83202C130.442 0.83202 134.611 1.40331 138.631 2.54589C142.651 3.64615 146.396 5.2119 149.866 7.24315C153.336 9.2744 156.51 11.7288 159.388 14.6064C162.265 17.484 164.72 20.6579 166.751 24.1279C168.782 27.598 170.348 31.3431 171.448 35.3633C172.591 39.3835 173.162 43.5517 173.162 47.8682ZM155.071 47.8682C155.071 43.8903 154.31 40.1452 152.786 36.6328C151.263 33.0781 149.189 30.0101 146.565 27.4287C143.984 24.805 140.916 22.7314 137.361 21.208C133.849 19.6846 130.104 18.9228 126.126 18.9228C122.106 18.9228 118.34 19.6846 114.827 21.208C111.315 22.7314 108.247 24.805 105.623 27.4287C102.999 30.0101 100.926 33.0781 99.4023 36.6328C97.8789 40.1452 97.1172 43.8903 97.1172 47.8682C97.1172 51.846 97.8789 55.5911 99.4023 59.1035C100.926 62.5736 102.999 65.6204 105.623 68.2441C108.247 70.8678 111.315 72.9414 114.827 74.4648C118.34 75.9883 122.106 76.75 126.126 76.75C130.104 76.75 133.849 75.9883 137.361 74.4648C140.916 72.9414 143.984 70.8678 146.565 68.2441C149.189 65.6204 151.263 62.5736 152.786 59.1035C154.31 55.5911 155.071 51.846 155.071 47.8682ZM203.377 20.1924V56.6279H221.595C224.091 56.6279 226.44 56.1624 228.641 55.2314C230.841 54.2581 232.767 52.9463 234.417 51.2959C236.067 49.6455 237.358 47.72 238.289 45.5195C239.262 43.2767 239.749 40.9069 239.749 38.4101C239.749 35.9134 239.262 33.5648 238.289 31.3642C237.358 29.1214 236.067 27.1748 234.417 25.5244C232.767 23.874 230.841 22.5833 228.641 21.6523C226.44 20.679 224.091 20.1924 221.595 20.1924H203.377ZM203.377 93H185.159V1.9746H221.595C224.938 1.9746 228.154 2.41893 231.243 3.30761C234.332 4.15396 237.21 5.38117 239.876 6.98925C242.584 8.555 245.039 10.4593 247.239 12.7021C249.482 14.9027 251.386 17.3571 252.952 20.0654C254.56 22.7738 255.787 25.6725 256.634 28.7617C257.522 31.8509 257.967 35.067 257.967 38.4101C257.967 41.5417 257.565 44.5885 256.761 47.5508C255.999 50.513 254.878 53.3271 253.396 55.9932C251.958 58.6592 250.18 61.1136 248.064 63.3564C245.949 65.5993 243.579 67.5459 240.955 69.1963L251.048 93H231.688L223.753 74.6553L203.377 74.7822V93ZM306.526 93H288.372V20.1924H261.014V1.9746H333.821V20.1924H306.526V93ZM361.688 93H343.47V1.9746H407.2V20.1924H361.688V38.4101H388.982V56.6279H361.688V93ZM503.748 47.8682C503.748 52.1846 503.177 56.3529 502.034 60.373C500.934 64.3509 499.368 68.096 497.337 71.6084C495.306 75.0784 492.851 78.2523 489.974 81.1299C487.096 84.0075 483.922 86.4831 480.452 88.5566C476.982 90.5879 473.237 92.1536 469.217 93.2539C465.197 94.3965 461.028 94.9678 456.712 94.9678C452.396 94.9678 448.227 94.3965 444.207 93.2539C440.229 92.1536 436.484 90.5879 432.972 88.5566C429.502 86.4831 426.328 84.0075 423.45 81.1299C420.573 78.2523 418.097 75.0784 416.023 71.6084C413.992 68.096 412.405 64.3509 411.263 60.373C410.162 56.3529 409.612 52.1846 409.612 47.8682C409.612 43.5517 410.162 39.3835 411.263 35.3633C412.405 31.3431 413.992 27.598 416.023 24.1279C418.097 20.6579 420.573 17.484 423.45 14.6064C426.328 11.7288 429.502 9.2744 432.972 7.24315C436.484 5.2119 440.229 3.64615 444.207 2.54589C448.227 1.40331 452.396 0.83202 456.712 0.83202C461.028 0.83202 465.197 1.40331 469.217 2.54589C473.237 3.64615 476.982 5.2119 480.452 7.24315C483.922 9.2744 487.096 11.7288 489.974 14.6064C492.851 17.484 495.306 20.6579 497.337 24.1279C499.368 27.598 500.934 31.3431 502.034 35.3633C503.177 39.3835 503.748 43.5517 503.748 47.8682ZM485.657 47.8682C485.657 43.8903 484.896 40.1452 483.372 36.6328C481.849 33.0781 479.775 30.0101 477.151 27.4287C474.57 24.805 471.502 22.7314 467.947 21.208C464.435 19.6846 460.69 18.9228 456.712 18.9228C452.692 18.9228 448.925 19.6846 445.413 21.208C441.901 22.7314 438.833 24.805 436.209 27.4287C433.585 30.0101 431.512 33.0781 429.988 36.6328C428.465 40.1452 427.703 43.8903 427.703 47.8682C427.703 51.846 428.465 55.5911 429.988 59.1035C431.512 62.5736 433.585 65.6204 436.209 68.2441C438.833 70.8678 441.901 72.9414 445.413 74.4648C448.925 75.9883 452.692 76.75 456.712 76.75C460.69 76.75 464.435 75.9883 467.947 74.4648C471.502 72.9414 474.57 70.8678 477.151 68.2441C479.775 65.6204 481.849 62.5736 483.372 59.1035C484.896 55.5911 485.657 51.846 485.657 47.8682ZM579.476 93H515.745V1.9746H533.963V74.7822H579.476V93ZM607.215 93H588.997V1.9746H607.215V93ZM713.348 47.8682C713.348 52.1846 712.776 56.3529 711.634 60.373C710.534 64.3509 708.968 68.096 706.937 71.6084C704.905 75.0784 702.451 78.2523 699.573 81.1299C696.696 84.0075 693.522 86.4831 690.052 88.5566C686.582 90.5879 682.837 92.1536 678.816 93.2539C674.796 94.3965 670.628 94.9678 666.312 94.9678C661.995 94.9678 657.827 94.3965 653.807 93.2539C649.829 92.1536 646.084 90.5879 642.571 88.5566C639.101 86.4831 635.927 84.0075 633.05 81.1299C630.172 78.2523 627.697 75.0784 625.623 71.6084C623.592 68.096 622.005 64.3509 620.862 60.373C619.762 56.3529 619.212 52.1846 619.212 47.8682C619.212 43.5517 619.762 39.3835 620.862 35.3633C622.005 31.3431 623.592 27.598 625.623 24.1279C627.697 20.6579 630.172 17.484 633.05 14.6064C635.927 11.7288 639.101 9.2744 642.571 7.24315C646.084 5.2119 649.829 3.64615 653.807 2.54589C657.827 1.40331 661.995 0.83202 666.312 0.83202C670.628 0.83202 674.796 1.40331 678.816 2.54589C682.837 3.64615 686.582 5.2119 690.052 7.24315C693.522 9.2744 696.696 11.7288 699.573 14.6064C702.451 17.484 704.905 20.6579 706.937 24.1279C708.968 27.598 710.534 31.3431 711.634 35.3633C712.776 39.3835 713.348 43.5517 713.348 47.8682ZM695.257 47.8682C695.257 43.8903 694.495 40.1452 692.972 36.6328C691.448 33.0781 689.375 30.0101 686.751 27.4287C684.17 24.805 681.102 22.7314 677.547 21.208C674.035 19.6846 670.289 18.9228 666.312 18.9228C662.291 18.9228 658.525 19.6846 655.013 21.208C651.5 22.7314 648.432 24.805 645.809 27.4287C643.185 30.0101 641.111 33.0781 639.588 36.6328C638.064 40.1452 637.303 43.8903 637.303 47.8682C637.303 51.846 638.064 55.5911 639.588 59.1035C641.111 62.5736 643.185 65.6204 645.809 68.2441C648.432 70.8678 651.5 72.9414 655.013 74.4648C658.525 75.9883 662.291 76.75 666.312 76.75C670.289 76.75 674.035 75.9883 677.547 74.4648C681.102 72.9414 684.17 70.8678 686.751 68.2441C689.375 65.6204 691.448 62.5736 692.972 59.1035C694.495 55.5911 695.257 51.846 695.257 47.8682Z" fill="white"/>
</svg>
