<svg width="714" height="95" viewBox="0 0 714 95" fill="none" xmlns="http://www.w3.org/2000/svg">
<path d="M18.6602 20.1924V18.1924H16.6602V20.1924H18.6602ZM18.6602 56.628H16.6602V58.628H18.6602V56.628ZM43.9238 55.2315L44.7031 57.0734L44.718 57.0671L44.7328 57.0606L43.9238 55.2315ZM53.5723 45.5196L51.7376 44.7234L51.7339 44.7318L51.7303 44.7403L53.5723 45.5196ZM53.5723 31.3643L51.7251 32.1311L51.7339 32.1523L51.7432 32.1733L53.5723 31.3643ZM43.9238 21.6524L43.1148 23.4815L43.1296 23.488L43.1445 23.4943L43.9238 21.6524ZM18.6602 93.0001V95.0001H20.6602V93.0001H18.6602ZM0.442383 93.0001H-1.55762V95.0001H0.442383V93.0001ZM0.442383 1.97467V-0.0253296H-1.55762V1.97467H0.442383ZM46.5264 3.30768L45.9734 5.22973L45.9857 5.23324L45.9979 5.23659L46.5264 3.30768ZM55.1592 6.98932L54.1262 8.7019L54.1421 8.71149L54.1582 8.72079L55.1592 6.98932ZM62.5225 12.7022L61.0948 14.1029L61.1082 14.1165L61.1218 14.1298L62.5225 12.7022ZM68.2354 20.0655L66.5039 21.0665L66.5097 21.0766L66.5156 21.0866L68.2354 20.0655ZM71.917 28.7618L69.9881 29.2903L69.9914 29.3025L69.9949 29.3147L71.917 28.7618ZM70.3936 52.5655L72.2291 53.3597L72.2318 53.3533L70.3936 52.5655ZM50.9697 71.9258L50.1819 70.0875L50.1755 70.0903L50.9697 71.9258ZM18.6602 74.7823V72.7823H16.6602V74.7823H18.6602ZM16.6602 20.1924V56.628H20.6602V20.1924H16.6602ZM18.6602 58.628H36.8779V54.628H18.6602V58.628ZM36.8779 58.628C39.6301 58.628 42.245 58.1134 44.7031 57.0734L43.1445 53.3896C41.2016 54.2116 39.1192 54.628 36.8779 54.628V58.628ZM44.7328 57.0606C47.1519 55.9906 49.2842 54.5404 51.1144 52.7102L48.286 49.8817C46.8154 51.3523 45.0968 52.5258 43.1148 53.4024L44.7328 57.0606ZM51.1144 52.7102C52.9513 50.8733 54.3853 48.7309 55.4142 46.2989L51.7303 44.7403C50.8973 46.7094 49.7499 48.4178 48.286 49.8817L51.1144 52.7102ZM55.407 46.3158C56.4917 43.8163 57.0322 41.1749 57.0322 38.4102H53.0322C53.0322 40.639 52.5995 42.7373 51.7376 44.7234L55.407 46.3158ZM57.0322 38.4102C57.0322 35.6456 56.4916 33.0203 55.4013 30.5553L51.7432 32.1733C52.5995 34.1094 53.0322 36.1814 53.0322 38.4102H57.0322ZM55.4194 30.5976C54.3921 28.1226 52.9576 25.9535 51.1144 24.1103L48.286 26.9387C49.7435 28.3962 50.8904 30.1204 51.7251 32.1311L55.4194 30.5976ZM51.1144 24.1103C49.2775 22.2734 47.1351 20.8394 44.7031 19.8105L43.1445 23.4943C45.1136 24.3274 46.8221 25.4748 48.286 26.9387L51.1144 24.1103ZM44.7328 19.8233C42.2679 18.7331 39.6426 18.1924 36.8779 18.1924V22.1924C39.1068 22.1924 41.1788 22.6251 43.1148 23.4815L44.7328 19.8233ZM36.8779 18.1924H18.6602V22.1924H36.8779V18.1924ZM18.6602 91.0001H0.442383V95.0001H18.6602V91.0001ZM2.44238 93.0001V1.97467H-1.55762V93.0001H2.44238ZM0.442383 3.97467H36.8779V-0.0253296H0.442383V3.97467ZM36.8779 3.97467C40.0415 3.97467 43.0711 4.39481 45.9734 5.22973L47.0793 1.38563C43.8033 0.443206 40.4006 -0.0253296 36.8779 -0.0253296V3.97467ZM45.9979 5.23659C48.9149 6.03578 51.6221 7.1915 54.1262 8.7019L56.1922 5.27674C53.3642 3.57099 50.3162 2.27229 47.0548 1.37876L45.9979 5.23659ZM54.1582 8.72079C56.7093 10.1957 59.0204 11.9885 61.0948 14.1029L63.9501 11.3015C61.6235 8.93023 59.0257 6.91448 56.1602 5.25785L54.1582 8.72079ZM61.1218 14.1298C63.2362 16.2043 65.029 18.5154 66.5039 21.0665L69.9668 19.0645C68.3102 16.199 66.2944 13.6012 63.9231 11.2746L61.1218 14.1298ZM66.5156 21.0866C68.0307 23.6382 69.1883 26.3709 69.9881 29.2903L73.8459 28.2333C72.953 24.9742 71.6562 21.9094 69.9551 19.0444L66.5156 21.0866ZM69.9949 29.3147C70.8299 32.2171 71.25 35.2466 71.25 38.4102H75.25C75.25 34.8876 74.7815 31.4849 73.839 28.2089L69.9949 29.3147ZM71.25 38.4102C71.25 43.142 70.3493 47.5915 68.5553 51.7777L72.2318 53.3533C74.2464 48.6528 75.25 43.6654 75.25 38.4102H71.25ZM68.558 51.7713C66.751 55.9474 64.2893 59.5864 61.1717 62.704L64.0002 65.5324C67.4841 62.0485 70.2275 57.9857 72.2291 53.3597L68.558 51.7713ZM61.1717 62.704C58.0573 65.8185 54.3999 68.2798 50.1819 70.0876L51.7576 73.7641C56.4263 71.7632 60.513 69.0195 64.0002 65.5324L61.1717 62.704ZM50.1755 70.0903C46.0356 71.8816 41.6098 72.7823 36.8779 72.7823V76.7823C42.1331 76.7823 47.1018 75.7787 51.764 73.7614L50.1755 70.0903ZM36.8779 72.7823H18.6602V76.7823H36.8779V72.7823ZM16.6602 74.7823V93.0001H20.6602V74.7823H16.6602ZM171.448 60.3731L169.524 59.8263L169.521 59.8399L171.448 60.3731ZM166.751 71.6085L168.477 72.6188L168.482 72.6097L166.751 71.6085ZM149.866 88.5567L150.877 90.2827L150.884 90.2782L150.892 90.2735L149.866 88.5567ZM138.631 93.254L138.103 91.3249L138.093 91.3275L138.084 91.3302L138.631 93.254ZM113.621 93.254L114.168 91.3301L114.154 91.3263L113.621 93.254ZM102.386 88.5567L101.36 90.2735L101.372 90.2809L101.384 90.288L102.386 88.5567ZM85.4375 71.6085L83.7062 72.6097L83.7133 72.6221L83.7207 72.6344L85.4375 71.6085ZM80.6768 60.3731L78.7477 60.9011L78.751 60.9132L78.7545 60.9253L80.6768 60.3731ZM80.6768 35.3633L78.7529 34.8166L78.7503 34.826L78.7477 34.8354L80.6768 35.3633ZM85.4375 24.128L83.7207 23.1021L83.716 23.1098L83.7115 23.1176L85.4375 24.128ZM102.386 7.24323L101.384 5.51187L101.375 5.5172L102.386 7.24323ZM113.621 2.54596L114.154 4.47363L114.168 4.46977L113.621 2.54596ZM138.631 2.54596L138.084 4.46977L138.093 4.47244L138.103 4.47502L138.631 2.54596ZM171.448 35.3633L169.519 35.8913L169.522 35.9007L169.524 35.9101L171.448 35.3633ZM152.786 36.6329L150.948 37.4207L150.951 37.4287L152.786 36.6329ZM146.565 27.4288L145.14 28.8314L145.151 28.843L145.163 28.8544L146.565 27.4288ZM137.361 21.2081L136.565 23.0429L136.573 23.0464L137.361 21.2081ZM105.623 27.4288L107.026 28.8544L107.032 28.8487L107.037 28.843L105.623 27.4288ZM99.4023 36.6329L101.237 37.4287L101.241 37.4207L99.4023 36.6329ZM99.4023 59.1036L97.5675 59.8994L97.5711 59.9076L99.4023 59.1036ZM105.623 68.2442L104.209 69.6584L105.623 68.2442ZM137.361 74.4649L136.573 72.6266L136.565 72.6301L137.361 74.4649ZM146.565 68.2442L145.151 66.83L145.145 66.8357L145.14 66.8415L146.565 68.2442ZM152.786 59.1036L154.617 59.9076L154.621 59.8994L152.786 59.1036ZM171.162 47.8682C171.162 52.0058 170.615 55.9898 169.524 59.8263L173.372 60.9199C174.567 56.7161 175.162 52.3634 175.162 47.8682H171.162ZM169.521 59.8399C168.465 63.6569 166.964 67.2444 165.02 70.6072L168.482 72.6097C170.6 68.9478 172.231 65.045 173.376 60.9063L169.521 59.8399ZM165.025 70.5981C163.081 73.919 160.732 76.9574 157.973 79.7157L160.802 82.5442C163.799 79.5473 166.358 76.238 168.477 72.6188L165.025 70.5981ZM157.973 79.7157C155.212 82.4776 152.168 84.8514 148.84 86.8399L150.892 90.2735C154.505 88.1149 157.809 85.5374 160.802 82.5442L157.973 79.7157ZM148.856 86.8307C145.542 88.7702 141.96 90.2692 138.103 91.3249L139.159 95.183C143.342 94.0382 147.25 92.4057 150.877 90.2827L148.856 86.8307ZM138.084 91.3302C134.248 92.4205 130.264 92.9678 126.126 92.9678V96.9678C130.621 96.9678 134.974 96.3725 139.178 95.1778L138.084 91.3302ZM126.126 92.9678C121.988 92.9678 118.004 92.4205 114.168 91.3302L113.074 95.1778C117.278 96.3725 121.631 96.9678 126.126 96.9678V92.9678ZM114.154 91.3263C110.337 90.2706 106.75 88.7701 103.387 86.8254L101.384 90.288C105.046 92.4058 108.949 94.0368 113.088 95.1816L114.154 91.3263ZM103.412 86.8399C100.084 84.8514 97.0404 82.4776 94.2785 79.7157L91.45 82.5442C94.4433 85.5374 97.7474 88.1149 101.36 90.2735L103.412 86.8399ZM94.2785 79.7157C91.5166 76.9538 89.1428 73.9102 87.1543 70.5825L83.7207 72.6344C85.8793 76.2468 88.4568 79.5509 91.45 82.5442L94.2785 79.7157ZM87.1688 70.6072C85.221 67.239 83.6974 63.6451 82.599 59.821L78.7545 60.9253C79.9412 65.0569 81.5915 68.9532 83.7062 72.6097L87.1688 70.6072ZM82.6058 59.8452C81.5543 56.0031 81.0264 52.0126 81.0264 47.8682H77.0264C77.0264 52.3566 77.5987 56.7028 78.7477 60.9011L82.6058 59.8452ZM81.0264 47.8682C81.0264 43.7238 81.5543 39.7334 82.6058 35.8913L78.7477 34.8354C77.5987 39.0337 77.0264 43.3798 77.0264 47.8682H81.0264ZM82.6006 35.9101C83.6989 32.0458 85.2208 28.4572 87.1635 25.1383L83.7115 23.1176C81.5917 26.7389 79.9398 30.6406 78.7529 34.8166L82.6006 35.9101ZM87.1543 25.1539C89.1428 21.8262 91.5166 18.7826 94.2785 16.0207L91.45 13.1923C88.4568 16.1856 85.8793 19.4897 83.7207 23.1021L87.1543 25.1539ZM94.2785 16.0207C97.0368 13.2624 100.075 10.9132 103.396 8.96925L101.375 5.5172C97.7562 7.63576 94.4469 10.1954 91.45 13.1923L94.2785 16.0207ZM103.387 8.97455C106.75 7.02981 110.337 5.52934 114.154 4.47358L113.088 0.618337C108.949 1.7631 105.046 3.39414 101.384 5.5119L103.387 8.97455ZM114.168 4.46977C118.004 3.37938 121.988 2.83209 126.126 2.83209V-1.16791C121.631 -1.16791 117.278 -0.572619 113.074 0.622149L114.168 4.46977ZM126.126 2.83209C130.264 2.83209 134.248 3.37938 138.084 4.46977L139.178 0.622149C134.974 -0.572619 130.621 -1.16791 126.126 -1.16791V2.83209ZM138.103 4.47502C141.96 5.53072 145.542 7.02971 148.856 8.96925L150.877 5.5172C147.25 3.39424 143.342 1.76172 139.159 0.616901L138.103 4.47502ZM148.856 8.96925C152.177 10.9132 155.215 13.2624 157.973 16.0207L160.802 13.1923C157.805 10.1954 154.496 7.63576 150.877 5.5172L148.856 8.96925ZM157.973 16.0207C160.732 18.779 163.081 21.8175 165.025 25.1383L168.477 23.1176C166.358 19.4984 163.799 16.1892 160.802 13.1923L157.973 16.0207ZM165.025 25.1383C166.964 28.4517 168.463 32.0339 169.519 35.8913L173.377 34.8354C172.232 30.6524 170.6 26.7444 168.477 23.1176L165.025 25.1383ZM169.524 35.9101C170.615 39.7467 171.162 43.7306 171.162 47.8682H175.162C175.162 43.373 174.567 39.0204 173.372 34.8166L169.524 35.9101ZM157.071 47.8682C157.071 43.6275 156.258 39.6104 154.621 35.837L150.951 37.4287C152.362 40.6801 153.071 44.1532 153.071 47.8682H157.071ZM154.624 35.845C153.004 32.0638 150.786 28.7759 147.968 26.0031L145.163 28.8544C147.592 31.2444 149.522 34.0926 150.948 37.4207L154.624 35.845ZM147.991 26.0261C145.218 23.2078 141.93 20.9903 138.149 19.3698L136.573 23.0464C139.902 24.4727 142.75 26.4023 145.14 28.8314L147.991 26.0261ZM138.157 19.3732C134.384 17.7366 130.367 16.9229 126.126 16.9229V20.9229C129.841 20.9229 133.314 21.6327 136.565 23.0429L138.157 19.3732ZM126.126 16.9229C121.846 16.9229 117.807 17.7354 114.031 19.3732L115.623 23.0429C118.872 21.6338 122.366 20.9229 126.126 20.9229V16.9229ZM114.031 19.3732C110.296 20.9935 107.016 23.2073 104.209 26.0146L107.037 28.843C109.477 26.4028 112.334 24.4695 115.623 23.0429L114.031 19.3732ZM104.22 26.0031C101.402 28.7759 99.1846 32.0638 97.5641 35.845L101.241 37.4207C102.667 34.0926 104.597 31.2444 107.026 28.8544L104.22 26.0031ZM97.5675 35.837C95.9309 39.6104 95.1172 43.6275 95.1172 47.8682H99.1172C99.1172 44.1532 99.827 40.6801 101.237 37.4287L97.5675 35.837ZM95.1172 47.8682C95.1172 52.109 95.9309 56.126 97.5675 59.8994L101.237 58.3077C99.827 55.0564 99.1172 51.5832 99.1172 47.8682H95.1172ZM97.5711 59.9076C99.1922 63.6002 101.406 66.8552 104.209 69.6584L107.037 66.83C104.593 64.3858 102.659 61.5471 101.234 58.2996L97.5711 59.9076ZM104.209 69.6584C107.016 72.4656 110.296 74.6795 114.031 76.2997L115.623 72.6301C112.334 71.2035 109.477 69.2702 107.037 66.83L104.209 69.6584ZM114.031 76.2997C117.807 77.9376 121.846 78.7501 126.126 78.7501V74.7501C122.366 74.7501 118.872 74.0391 115.623 72.6301L114.031 76.2997ZM126.126 78.7501C130.367 78.7501 134.384 77.9364 138.157 76.2997L136.565 72.6301C133.314 74.0403 129.841 74.7501 126.126 74.7501V78.7501ZM138.149 76.3032C141.93 74.6827 145.218 72.4652 147.991 69.6469L145.14 66.8415C142.75 69.2706 139.902 71.2003 136.573 72.6266L138.149 76.3032ZM147.98 69.6584C150.783 66.8552 152.996 63.6002 154.617 59.9076L150.955 58.2996C149.529 61.5471 147.595 64.3858 145.151 66.83L147.98 69.6584ZM154.621 59.8994C156.258 56.126 157.071 52.109 157.071 47.8682H153.071C153.071 51.5832 152.362 55.0564 150.951 58.3077L154.621 59.8994ZM203.377 20.1924V18.1924H201.377V20.1924H203.377ZM203.377 56.628H201.377V58.628H203.377V56.628ZM228.641 55.2315L229.42 57.0734L229.435 57.0671L229.45 57.0606L228.641 55.2315ZM238.289 45.5196L236.454 44.7234L236.451 44.7318L236.447 44.7403L238.289 45.5196ZM238.289 31.3643L236.442 32.1311L236.451 32.1523L236.46 32.1733L238.289 31.3643ZM228.641 21.6524L227.832 23.4815L227.846 23.488L227.861 23.4943L228.641 21.6524ZM203.377 93.0001V95.0001H205.377V93.0001H203.377ZM185.159 93.0001H183.159V95.0001H185.159V93.0001ZM185.159 1.97467V-0.0253296H183.159V1.97467H185.159ZM231.243 3.30768L230.69 5.22973L230.702 5.23324L230.715 5.23659L231.243 3.30768ZM239.876 6.98932L238.843 8.7019L238.859 8.71149L238.875 8.72079L239.876 6.98932ZM247.239 12.7022L245.812 14.1029L245.825 14.1165L245.839 14.1298L247.239 12.7022ZM252.952 20.0655L251.221 21.0665L251.227 21.0766L251.232 21.0866L252.952 20.0655ZM256.634 28.7618L254.705 29.2903L254.708 29.3025L254.712 29.3147L256.634 28.7618ZM256.761 47.5508L254.831 47.0269L254.827 47.0398L254.824 47.0528L256.761 47.5508ZM253.396 55.9932L251.648 55.0219L251.642 55.0326L251.636 55.0434L253.396 55.9932ZM240.955 69.1964L239.89 67.5034L238.449 68.4098L239.114 69.9771L240.955 69.1964ZM251.048 93.0001V95.0001H254.068L252.889 92.2193L251.048 93.0001ZM231.688 93.0001L229.852 93.794L230.373 95.0001H231.688V93.0001ZM223.753 74.6553L225.589 73.8614L225.063 72.6471L223.74 72.6554L223.753 74.6553ZM203.377 74.7823L203.364 72.7823L201.377 72.7947V74.7823H203.377ZM201.377 20.1924V56.628H205.377V20.1924H201.377ZM203.377 58.628H221.595V54.628H203.377V58.628ZM221.595 58.628C224.347 58.628 226.962 58.1134 229.42 57.0734L227.861 53.3896C225.918 54.2116 223.836 54.628 221.595 54.628V58.628ZM229.45 57.0606C231.869 55.9906 234.001 54.5404 235.831 52.7102L233.003 49.8817C231.532 51.3523 229.814 52.5258 227.832 53.4024L229.45 57.0606ZM235.831 52.7102C237.668 50.8733 239.102 48.7309 240.131 46.2989L236.447 44.7403C235.614 46.7094 234.467 48.4178 233.003 49.8817L235.831 52.7102ZM240.124 46.3158C241.208 43.8163 241.749 41.1749 241.749 38.4102H237.749C237.749 40.639 237.316 42.7373 236.454 44.7234L240.124 46.3158ZM241.749 38.4102C241.749 35.6456 241.208 33.0203 240.118 30.5553L236.46 32.1733C237.316 34.1094 237.749 36.1814 237.749 38.4102H241.749ZM240.136 30.5976C239.109 28.1226 237.674 25.9535 235.831 24.1103L233.003 26.9387C234.46 28.3962 235.607 30.1204 236.442 32.1311L240.136 30.5976ZM235.831 24.1103C233.994 22.2734 231.852 20.8394 229.42 19.8105L227.861 23.4943C229.83 24.3274 231.539 25.4748 233.003 26.9387L235.831 24.1103ZM229.45 19.8233C226.985 18.7331 224.359 18.1924 221.595 18.1924V22.1924C223.824 22.1924 225.896 22.6251 227.832 23.4815L229.45 19.8233ZM221.595 18.1924H203.377V22.1924H221.595V18.1924ZM203.377 91.0001H185.159V95.0001H203.377V91.0001ZM187.159 93.0001V1.97467H183.159V93.0001H187.159ZM185.159 3.97467H221.595V-0.0253296H185.159V3.97467ZM221.595 3.97467C224.758 3.97467 227.788 4.39481 230.69 5.22973L231.796 1.38563C228.52 0.443206 225.117 -0.0253296 221.595 -0.0253296V3.97467ZM230.715 5.23659C233.632 6.03578 236.339 7.1915 238.843 8.7019L240.909 5.27674C238.081 3.57099 235.033 2.27229 231.772 1.37876L230.715 5.23659ZM238.875 8.72079C241.426 10.1957 243.737 11.9885 245.812 14.1029L248.667 11.3015C246.34 8.93023 243.743 6.91448 240.877 5.25785L238.875 8.72079ZM245.839 14.1298C247.953 16.2043 249.746 18.5154 251.221 21.0665L254.684 19.0645C253.027 16.199 251.011 13.6012 248.64 11.2746L245.839 14.1298ZM251.232 21.0866C252.747 23.6382 253.905 26.3709 254.705 29.2903L258.563 28.2333C257.67 24.9742 256.373 21.9094 254.672 19.0444L251.232 21.0866ZM254.712 29.3147C255.547 32.2171 255.967 35.2466 255.967 38.4102H259.967C259.967 34.8876 259.498 31.4849 258.556 28.2089L254.712 29.3147ZM255.967 38.4102C255.967 41.3684 255.587 44.2389 254.831 47.0269L258.691 48.0747C259.542 44.9383 259.967 41.7151 259.967 38.4102H255.967ZM254.824 47.0528C254.104 49.8503 253.046 52.5054 251.648 55.0219L255.145 56.9645C256.709 54.149 257.894 51.1758 258.698 48.0489L254.824 47.0528ZM251.636 55.0434C250.282 57.5531 248.608 59.8659 246.61 61.9841L249.519 64.7289C251.753 62.3614 253.633 59.7654 255.157 56.9431L251.636 55.0434ZM246.61 61.9841C244.61 64.1034 242.372 65.9425 239.89 67.5034L242.02 70.8893C244.786 69.1494 247.287 67.0953 249.519 64.7289L246.61 61.9841ZM239.114 69.9771L249.207 93.7808L252.889 92.2193L242.796 68.4156L239.114 69.9771ZM251.048 91.0001H231.688V95.0001H251.048V91.0001ZM233.523 92.2061L225.589 73.8614L221.917 75.4493L229.852 93.794L233.523 92.2061ZM223.74 72.6554L203.364 72.7823L203.389 76.7822L223.765 76.6553L223.74 72.6554ZM201.377 74.7823V93.0001H205.377V74.7823H201.377ZM306.526 93.0001V95.0001H308.526V93.0001H306.526ZM288.372 93.0001H286.372V95.0001H288.372V93.0001ZM288.372 20.1924H290.372V18.1924H288.372V20.1924ZM261.014 20.1924H259.014V22.1924H261.014V20.1924ZM261.014 1.97467V-0.0253296H259.014V1.97467H261.014ZM333.821 1.97467H335.821V-0.0253296H333.821V1.97467ZM333.821 20.1924V22.1924H335.821V20.1924H333.821ZM306.526 20.1924V18.1924H304.526V20.1924H306.526ZM306.526 91.0001H288.372V95.0001H306.526V91.0001ZM290.372 93.0001V20.1924H286.372V93.0001H290.372ZM288.372 18.1924H261.014V22.1924H288.372V18.1924ZM263.014 20.1924V1.97467H259.014V20.1924H263.014ZM261.014 3.97467H333.821V-0.0253296H261.014V3.97467ZM331.821 1.97467V20.1924H335.821V1.97467H331.821ZM333.821 18.1924H306.526V22.1924H333.821V18.1924ZM304.526 20.1924V93.0001H308.526V20.1924H304.526ZM361.688 93.0001V95.0001H363.688V93.0001H361.688ZM343.47 93.0001H341.47V95.0001H343.47V93.0001ZM343.47 1.97467V-0.0253296H341.47V1.97467H343.47ZM407.2 1.97467H409.2V-0.0253296H407.2V1.97467ZM407.2 20.1924V22.1924H409.2V20.1924H407.2ZM361.688 20.1924V18.1924H359.688V20.1924H361.688ZM361.688 38.4102H359.688V40.4102H361.688V38.4102ZM388.982 38.4102H390.982V36.4102H388.982V38.4102ZM388.982 56.628V58.628H390.982V56.628H388.982ZM361.688 56.628V54.628H359.688V56.628H361.688ZM361.688 91.0001H343.47V95.0001H361.688V91.0001ZM345.47 93.0001V1.97467H341.47V93.0001H345.47ZM343.47 3.97467H407.2V-0.0253296H343.47V3.97467ZM405.2 1.97467V20.1924H409.2V1.97467H405.2ZM407.2 18.1924H361.688V22.1924H407.2V18.1924ZM359.688 20.1924V38.4102H363.688V20.1924H359.688ZM361.688 40.4102H388.982V36.4102H361.688V40.4102ZM386.982 38.4102V56.628H390.982V38.4102H386.982ZM388.982 54.628H361.688V58.628H388.982V54.628ZM359.688 56.628V93.0001H363.688V56.628H359.688ZM502.034 60.3731L500.11 59.8263L500.107 59.8399L502.034 60.3731ZM497.337 71.6085L499.063 72.6188L499.068 72.6097L497.337 71.6085ZM480.452 88.5567L481.463 90.2827L481.47 90.2782L481.478 90.2735L480.452 88.5567ZM469.217 93.254L468.689 91.3249L468.679 91.3275L468.67 91.3302L469.217 93.254ZM444.207 93.254L444.754 91.3301L444.74 91.3263L444.207 93.254ZM432.972 88.5567L431.946 90.2735L431.958 90.2809L431.97 90.288L432.972 88.5567ZM416.023 71.6085L414.292 72.6097L414.299 72.6221L414.307 72.6344L416.023 71.6085ZM411.263 60.3731L409.334 60.9011L409.337 60.9132L409.34 60.9253L411.263 60.3731ZM411.263 35.3633L409.339 34.8166L409.336 34.826L409.334 34.8354L411.263 35.3633ZM416.023 24.128L414.307 23.1021L414.302 23.1098L414.297 23.1176L416.023 24.128ZM432.972 7.24323L431.97 5.51187L431.961 5.5172L432.972 7.24323ZM444.207 2.54596L444.74 4.47363L444.754 4.46977L444.207 2.54596ZM469.217 2.54596L468.67 4.46977L468.679 4.47244L468.689 4.47502L469.217 2.54596ZM502.034 35.3633L500.105 35.8913L500.108 35.9007L500.11 35.9101L502.034 35.3633ZM483.372 36.6329L481.534 37.4207L481.537 37.4287L483.372 36.6329ZM477.151 27.4288L475.726 28.8314L475.737 28.843L475.749 28.8544L477.151 27.4288ZM467.947 21.2081L467.151 23.0429L467.159 23.0464L467.947 21.2081ZM436.209 27.4288L437.612 28.8544L437.617 28.8487L437.623 28.843L436.209 27.4288ZM429.988 36.6329L431.823 37.4287L431.827 37.4207L429.988 36.6329ZM429.988 59.1036L428.153 59.8994L428.157 59.9076L429.988 59.1036ZM436.209 68.2442L434.795 69.6584L436.209 68.2442ZM467.947 74.4649L467.159 72.6266L467.151 72.6301L467.947 74.4649ZM477.151 68.2442L475.737 66.83L475.731 66.8357L475.726 66.8415L477.151 68.2442ZM483.372 59.1036L485.203 59.9076L485.207 59.8994L483.372 59.1036ZM501.748 47.8682C501.748 52.0058 501.201 55.9898 500.11 59.8263L503.958 60.9199C505.153 56.7161 505.748 52.3634 505.748 47.8682H501.748ZM500.107 59.8399C499.051 63.6569 497.55 67.2444 495.606 70.6072L499.068 72.6097C501.186 68.9478 502.817 65.045 503.962 60.9063L500.107 59.8399ZM495.611 70.5981C493.667 73.919 491.318 76.9574 488.559 79.7157L491.388 82.5442C494.385 79.5473 496.944 76.238 499.063 72.6188L495.611 70.5981ZM488.559 79.7157C485.798 82.4776 482.754 84.8514 479.426 86.8399L481.478 90.2735C485.09 88.1149 488.395 85.5374 491.388 82.5442L488.559 79.7157ZM479.442 86.8307C476.128 88.7702 472.546 90.2692 468.689 91.3249L469.745 95.183C473.928 94.0382 477.836 92.4057 481.463 90.2827L479.442 86.8307ZM468.67 91.3302C464.833 92.4205 460.85 92.9678 456.712 92.9678V96.9678C461.207 96.9678 465.56 96.3725 469.764 95.1778L468.67 91.3302ZM456.712 92.9678C452.574 92.9678 448.59 92.4205 444.754 91.3302L443.66 95.1778C447.864 96.3725 452.217 96.9678 456.712 96.9678V92.9678ZM444.74 91.3263C440.923 90.2706 437.336 88.7701 433.973 86.8254L431.97 90.288C435.632 92.4058 439.535 94.0368 443.674 95.1816L444.74 91.3263ZM433.998 86.8399C430.67 84.8514 427.626 82.4776 424.864 79.7157L422.036 82.5442C425.029 85.5374 428.333 88.1149 431.946 90.2735L433.998 86.8399ZM424.864 79.7157C422.102 76.9538 419.729 73.9102 417.74 70.5825L414.307 72.6344C416.465 76.2468 419.043 79.5509 422.036 82.5442L424.864 79.7157ZM417.755 70.6072C415.807 67.239 414.283 63.6451 413.185 59.821L409.34 60.9253C410.527 65.0569 412.177 68.9532 414.292 72.6097L417.755 70.6072ZM413.192 59.8452C412.14 56.0031 411.612 52.0126 411.612 47.8682H407.612C407.612 52.3566 408.185 56.7028 409.334 60.9011L413.192 59.8452ZM411.612 47.8682C411.612 43.7238 412.14 39.7334 413.192 35.8913L409.334 34.8354C408.185 39.0337 407.612 43.3798 407.612 47.8682H411.612ZM413.187 35.9101C414.285 32.0458 415.807 28.4572 417.749 25.1383L414.297 23.1176C412.178 26.7389 410.526 30.6406 409.339 34.8166L413.187 35.9101ZM417.74 25.1539C419.729 21.8262 422.102 18.7826 424.864 16.0207L422.036 13.1923C419.043 16.1856 416.465 19.4897 414.307 23.1021L417.74 25.1539ZM424.864 16.0207C427.623 13.2624 430.661 10.9132 433.982 8.96925L431.961 5.5172C428.342 7.63576 425.033 10.1954 422.036 13.1923L424.864 16.0207ZM433.973 8.97455C437.336 7.02981 440.923 5.52934 444.74 4.47358L443.674 0.618337C439.535 1.7631 435.632 3.39414 431.97 5.5119L433.973 8.97455ZM444.754 4.46977C448.59 3.37938 452.574 2.83209 456.712 2.83209V-1.16791C452.217 -1.16791 447.864 -0.572619 443.66 0.622149L444.754 4.46977ZM456.712 2.83209C460.85 2.83209 464.833 3.37938 468.67 4.46977L469.764 0.622149C465.56 -0.572619 461.207 -1.16791 456.712 -1.16791V2.83209ZM468.689 4.47502C472.546 5.53072 476.128 7.02971 479.442 8.96925L481.463 5.5172C477.836 3.39424 473.928 1.76172 469.745 0.616901L468.689 4.47502ZM479.442 8.96925C482.763 10.9132 485.801 13.2624 488.559 16.0207L491.388 13.1923C488.391 10.1954 485.082 7.63576 481.463 5.5172L479.442 8.96925ZM488.559 16.0207C491.318 18.779 493.667 21.8175 495.611 25.1383L499.063 23.1176C496.944 19.4984 494.385 16.1892 491.388 13.1923L488.559 16.0207ZM495.611 25.1383C497.55 28.4517 499.049 32.0339 500.105 35.8913L503.963 34.8354C502.818 30.6524 501.186 26.7444 499.063 23.1176L495.611 25.1383ZM500.11 35.9101C501.201 39.7467 501.748 43.7306 501.748 47.8682H505.748C505.748 43.373 505.153 39.0204 503.958 34.8166L500.11 35.9101ZM487.657 47.8682C487.657 43.6275 486.844 39.6104 485.207 35.837L481.537 37.4287C482.947 40.6801 483.657 44.1532 483.657 47.8682H487.657ZM485.21 35.845C483.59 32.0638 481.372 28.7759 478.554 26.0031L475.749 28.8544C478.178 31.2444 480.107 34.0926 481.534 37.4207L485.21 35.845ZM478.577 26.0261C475.804 23.2078 472.516 20.9903 468.735 19.3698L467.159 23.0464C470.488 24.4727 473.336 26.4023 475.726 28.8314L478.577 26.0261ZM468.743 19.3732C464.97 17.7366 460.953 16.9229 456.712 16.9229V20.9229C460.427 20.9229 463.9 21.6327 467.151 23.0429L468.743 19.3732ZM456.712 16.9229C452.432 16.9229 448.393 17.7354 444.617 19.3732L446.209 23.0429C449.458 21.6338 452.952 20.9229 456.712 20.9229V16.9229ZM444.617 19.3732C440.882 20.9935 437.602 23.2073 434.795 26.0146L437.623 28.843C440.063 26.4028 442.92 24.4695 446.209 23.0429L444.617 19.3732ZM434.806 26.0031C431.988 28.7759 429.771 32.0638 428.15 35.845L431.827 37.4207C433.253 34.0926 435.183 31.2444 437.612 28.8544L434.806 26.0031ZM428.153 35.837C426.517 39.6104 425.703 43.6275 425.703 47.8682H429.703C429.703 44.1532 430.413 40.6801 431.823 37.4287L428.153 35.837ZM425.703 47.8682C425.703 52.109 426.517 56.126 428.153 59.8994L431.823 58.3077C430.413 55.0564 429.703 51.5832 429.703 47.8682H425.703ZM428.157 59.9076C429.778 63.6002 431.992 66.8552 434.795 69.6584L437.623 66.83C435.179 64.3858 433.245 61.5471 431.82 58.2996L428.157 59.9076ZM434.795 69.6584C437.602 72.4656 440.882 74.6795 444.617 76.2997L446.209 72.6301C442.92 71.2035 440.063 69.2702 437.623 66.83L434.795 69.6584ZM444.617 76.2997C448.393 77.9376 452.432 78.7501 456.712 78.7501V74.7501C452.952 74.7501 449.458 74.0391 446.209 72.6301L444.617 76.2997ZM456.712 78.7501C460.953 78.7501 464.97 77.9364 468.743 76.2997L467.151 72.6301C463.9 74.0403 460.427 74.7501 456.712 74.7501V78.7501ZM468.735 76.3032C472.516 74.6827 475.804 72.4652 478.577 69.6469L475.726 66.8415C473.336 69.2706 470.488 71.2003 467.159 72.6266L468.735 76.3032ZM478.566 69.6584C481.369 66.8552 483.582 63.6002 485.203 59.9076L481.541 58.2996C480.115 61.5471 478.181 64.3858 475.737 66.83L478.566 69.6584ZM485.207 59.8994C486.844 56.126 487.657 52.109 487.657 47.8682H483.657C483.657 51.5832 482.947 55.0564 481.537 58.3077L485.207 59.8994ZM579.476 93.0001V95.0001H581.476V93.0001H579.476ZM515.745 93.0001H513.745V95.0001H515.745V93.0001ZM515.745 1.97467V-0.0253296H513.745V1.97467H515.745ZM533.963 1.97467H535.963V-0.0253296H533.963V1.97467ZM533.963 74.7823H531.963V76.7823H533.963V74.7823ZM579.476 74.7823H581.476V72.7823H579.476V74.7823ZM579.476 91.0001H515.745V95.0001H579.476V91.0001ZM517.745 93.0001V1.97467H513.745V93.0001H517.745ZM515.745 3.97467H533.963V-0.0253296H515.745V3.97467ZM531.963 1.97467V74.7823H535.963V1.97467H531.963ZM533.963 76.7823H579.476V72.7823H533.963V76.7823ZM577.476 74.7823V93.0001H581.476V74.7823H577.476ZM607.215 93.0001V95.0001H609.215V93.0001H607.215ZM588.997 93.0001H586.997V95.0001H588.997V93.0001ZM588.997 1.97467V-0.0253296H586.997V1.97467H588.997ZM607.215 1.97467H609.215V-0.0253296H607.215V1.97467ZM607.215 91.0001H588.997V95.0001H607.215V91.0001ZM590.997 93.0001V1.97467H586.997V93.0001H590.997ZM588.997 3.97467H607.215V-0.0253296H588.997V3.97467ZM605.215 1.97467V93.0001H609.215V1.97467H605.215ZM711.634 60.3731L709.71 59.8263L709.706 59.8399L711.634 60.3731ZM706.937 71.6085L708.663 72.6188L708.668 72.6097L706.937 71.6085ZM690.052 88.5567L691.062 90.2827L691.07 90.2782L691.078 90.2735L690.052 88.5567ZM678.816 93.254L678.288 91.3249L678.279 91.3275L678.27 91.3302L678.816 93.254ZM653.807 93.254L654.353 91.3301L654.34 91.3263L653.807 93.254ZM642.571 88.5567L641.545 90.2735L641.558 90.2809L641.57 90.288L642.571 88.5567ZM625.623 71.6085L623.892 72.6097L623.899 72.6221L623.906 72.6344L625.623 71.6085ZM620.862 60.3731L618.933 60.9011L618.937 60.9132L618.94 60.9253L620.862 60.3731ZM620.862 35.3633L618.938 34.8166L618.936 34.826L618.933 34.8354L620.862 35.3633ZM625.623 24.128L623.906 23.1021L623.902 23.1098L623.897 23.1176L625.623 24.128ZM642.571 7.24323L641.57 5.51187L641.561 5.5172L642.571 7.24323ZM653.807 2.54596L654.34 4.47363L654.353 4.46977L653.807 2.54596ZM678.816 2.54596L678.27 4.46977L678.279 4.47244L678.288 4.47502L678.816 2.54596ZM711.634 35.3633L709.705 35.8913L709.707 35.9007L709.71 35.9101L711.634 35.3633ZM692.972 36.6329L691.133 37.4207L691.137 37.4287L692.972 36.6329ZM686.751 27.4288L685.325 28.8314L685.337 28.843L685.348 28.8544L686.751 27.4288ZM677.547 21.2081L676.751 23.0429L676.759 23.0464L677.547 21.2081ZM645.809 27.4288L647.211 28.8544L647.217 28.8487L647.223 28.843L645.809 27.4288ZM639.588 36.6329L641.423 37.4287L641.426 37.4207L639.588 36.6329ZM639.588 59.1036L637.753 59.8994L637.757 59.9076L639.588 59.1036ZM645.809 68.2442L644.394 69.6584L645.809 68.2442ZM677.547 74.4649L676.759 72.6266L676.751 72.6301L677.547 74.4649ZM686.751 68.2442L685.337 66.83L685.331 66.8357L685.325 66.8415L686.751 68.2442ZM692.972 59.1036L694.803 59.9076L694.807 59.8994L692.972 59.1036ZM711.348 47.8682C711.348 52.0058 710.8 55.9898 709.71 59.8263L713.558 60.9199C714.752 56.7161 715.348 52.3634 715.348 47.8682H711.348ZM709.706 59.8399C708.65 63.6569 707.15 67.2444 705.205 70.6072L708.668 72.6097C710.786 68.9478 712.417 65.045 713.561 60.9063L709.706 59.8399ZM705.21 70.5981C703.267 73.919 700.917 76.9574 698.159 79.7157L700.987 82.5442C703.984 79.5473 706.544 76.238 708.663 72.6188L705.21 70.5981ZM698.159 79.7157C695.397 82.4776 692.354 84.8514 689.026 86.8399L691.078 90.2735C694.69 88.1149 697.994 85.5374 700.987 82.5442L698.159 79.7157ZM689.041 86.8307C685.728 88.7702 682.146 90.2692 678.288 91.3249L679.344 95.183C683.527 94.0382 687.435 92.4057 691.062 90.2827L689.041 86.8307ZM678.27 91.3302C674.433 92.4205 670.449 92.9678 666.312 92.9678V96.9678C670.807 96.9678 675.159 96.3725 679.363 95.1778L678.27 91.3302ZM666.312 92.9678C662.174 92.9678 658.19 92.4205 654.353 91.3302L653.26 95.1778C657.464 96.3725 661.816 96.9678 666.312 96.9678V92.9678ZM654.34 91.3263C650.523 90.2706 646.935 88.7701 643.573 86.8254L641.57 90.288C645.232 92.4058 649.135 94.0368 653.273 95.1816L654.34 91.3263ZM643.597 86.8399C640.27 84.8514 637.226 82.4776 634.464 79.7157L631.636 82.5442C634.629 85.5374 637.933 88.1149 641.545 90.2735L643.597 86.8399ZM634.464 79.7157C631.702 76.9538 629.328 73.9102 627.34 70.5825L623.906 72.6344C626.065 76.2468 628.642 79.5509 631.636 82.5442L634.464 79.7157ZM627.354 70.6072C625.406 67.239 623.883 63.6451 622.785 59.821L618.94 60.9253C620.127 65.0569 621.777 68.9532 623.892 72.6097L627.354 70.6072ZM622.791 59.8452C621.74 56.0031 621.212 52.0126 621.212 47.8682H617.212C617.212 52.3566 617.784 56.7028 618.933 60.9011L622.791 59.8452ZM621.212 47.8682C621.212 43.7238 621.74 39.7334 622.791 35.8913L618.933 34.8354C617.784 39.0337 617.212 43.3798 617.212 47.8682H621.212ZM622.786 35.9101C623.884 32.0458 625.406 28.4572 627.349 25.1383L623.897 23.1176C621.777 26.7389 620.125 30.6406 618.938 34.8166L622.786 35.9101ZM627.34 25.1539C629.328 21.8262 631.702 18.7826 634.464 16.0207L631.636 13.1923C628.642 16.1856 626.065 19.4897 623.906 23.1021L627.34 25.1539ZM634.464 16.0207C637.222 13.2624 640.261 10.9132 643.582 8.96925L641.561 5.5172C637.942 7.63576 634.632 10.1954 631.636 13.1923L634.464 16.0207ZM643.573 8.97455C646.935 7.02981 650.523 5.52934 654.34 4.47358L653.273 0.618337C649.135 1.7631 645.232 3.39414 641.57 5.5119L643.573 8.97455ZM654.353 4.46977C658.19 3.37938 662.174 2.83209 666.312 2.83209V-1.16791C661.816 -1.16791 657.464 -0.572619 653.26 0.622149L654.353 4.46977ZM666.312 2.83209C670.449 2.83209 674.433 3.37938 678.27 4.46977L679.363 0.622149C675.159 -0.572619 670.807 -1.16791 666.312 -1.16791V2.83209ZM678.288 4.47502C682.146 5.53072 685.728 7.02971 689.041 8.96925L691.062 5.5172C687.435 3.39424 683.527 1.76172 679.344 0.616901L678.288 4.47502ZM689.041 8.96925C692.362 10.9132 695.401 13.2624 698.159 16.0207L700.987 13.1923C697.991 10.1954 694.681 7.63576 691.062 5.5172L689.041 8.96925ZM698.159 16.0207C700.917 18.779 703.267 21.8175 705.21 25.1383L708.663 23.1176C706.544 19.4984 703.984 16.1892 700.987 13.1923L698.159 16.0207ZM705.21 25.1383C707.15 28.4517 708.649 32.0339 709.705 35.8913L713.563 34.8354C712.418 30.6524 710.786 26.7444 708.663 23.1176L705.21 25.1383ZM709.71 35.9101C710.8 39.7467 711.348 43.7306 711.348 47.8682H715.348C715.348 43.373 714.752 39.0204 713.558 34.8166L709.71 35.9101ZM697.257 47.8682C697.257 43.6275 696.443 39.6104 694.807 35.837L691.137 37.4287C692.547 40.6801 693.257 44.1532 693.257 47.8682H697.257ZM694.81 35.845C693.189 32.0638 690.972 28.7759 688.154 26.0031L685.348 28.8544C687.777 31.2444 689.707 34.0926 691.133 37.4207L694.81 35.845ZM688.177 26.0261C685.404 23.2078 682.116 20.9903 678.335 19.3698L676.759 23.0464C680.087 24.4727 682.935 26.4023 685.325 28.8314L688.177 26.0261ZM678.343 19.3732C674.569 17.7366 670.552 16.9229 666.312 16.9229V20.9229C670.027 20.9229 673.5 21.6327 676.751 23.0429L678.343 19.3732ZM666.312 16.9229C662.032 16.9229 657.993 17.7354 654.217 19.3732L655.809 23.0429C659.057 21.6338 662.551 20.9229 666.312 20.9229V16.9229ZM654.217 19.3732C650.481 20.9935 647.202 23.2073 644.394 26.0146L647.223 28.843C649.663 26.4028 652.519 24.4695 655.809 23.0429L654.217 19.3732ZM644.406 26.0031C641.588 28.7759 639.37 32.0638 637.75 35.845L641.426 37.4207C642.853 34.0926 644.782 31.2444 647.211 28.8544L644.406 26.0031ZM637.753 35.837C636.116 39.6104 635.303 43.6275 635.303 47.8682H639.303C639.303 44.1532 640.013 40.6801 641.423 37.4287L637.753 35.837ZM635.303 47.8682C635.303 52.109 636.116 56.126 637.753 59.8994L641.423 58.3077C640.013 55.0564 639.303 51.5832 639.303 47.8682H635.303ZM637.757 59.9076C639.378 63.6002 641.591 66.8552 644.394 69.6584L647.223 66.83C644.779 64.3858 642.845 61.5471 641.419 58.2996L637.757 59.9076ZM644.394 69.6584C647.202 72.4656 650.481 74.6795 654.217 76.2997L655.809 72.6301C652.519 71.2035 649.663 69.2702 647.223 66.83L644.394 69.6584ZM654.217 76.2997C657.993 77.9376 662.032 78.7501 666.312 78.7501V74.7501C662.551 74.7501 659.057 74.0391 655.809 72.6301L654.217 76.2997ZM666.312 78.7501C670.552 78.7501 674.569 77.9364 678.343 76.2997L676.751 72.6301C673.5 74.0403 670.027 74.7501 666.312 74.7501V78.7501ZM678.335 76.3032C682.116 74.6827 685.404 72.4652 688.177 69.6469L685.325 66.8415C682.935 69.2706 680.087 71.2003 676.759 72.6266L678.335 76.3032ZM688.165 69.6584C690.968 66.8552 693.182 63.6002 694.803 59.9076L691.14 58.2996C689.715 61.5471 687.781 64.3858 685.337 66.83L688.165 69.6584ZM694.807 59.8994C696.443 56.126 697.257 52.109 697.257 47.8682H693.257C693.257 51.5832 692.547 55.0564 691.137 58.3077L694.807 59.8994Z" fill="white"/>
</svg>
