<svg width="50" height="50" viewBox="0 0 50 50" fill="none" xmlns="http://www.w3.org/2000/svg">
<path d="M31.75 25C31.75 21.25 28.75 18.25 25 18.25C21.25 18.25 18.25 21.25 18.25 25C18.25 28.75 21.25 31.75 25 31.75C28.75 31.75 31.75 28.75 31.75 25ZM35.25 25C35.25 30.75 30.75 35.25 25 35.25C19.25 35.25 14.75 30.75 14.75 25C14.75 19.25 19.25 14.75 25 14.75C30.75 14.75 35.25 19.25 35.25 25ZM38 14.25C38 15.75 37 16.75 35.5 16.75C34 16.75 33 15.75 33 14.25C33 12.75 34 11.75 35.5 11.75C37 11.75 38 13 38 14.25ZM25 8.5C22 8.5 15.75 8.25 13.25 9.25C11.5 10 10 11.5 9.5 13.25C8.5 15.75 8.75 22 8.75 25C8.75 28 8.5 34.25 9.5 36.75C10 38.5 11.5 40 13.25 40.5C15.75 41.5 22.25 41.25 25 41.25C27.75 41.25 34.25 41.5 36.75 40.5C38.5 39.75 39.75 38.5 40.5 36.75C41.5 34 41.25 27.75 41.25 25C41.25 22.25 41.5 15.75 40.5 13.25C40 11.5 38.5 10 36.75 9.5C34.25 8.25 28 8.5 25 8.5ZM45 25V33.25C45 36.25 44 39.25 41.75 41.75C39.5 44 36.5 45 33.25 45H16.75C13.75 45 10.75 44 8.25 41.75C6.25 39.5 5 36.5 5 33.25V25V16.75C5 13.5 6.25 10.5 8.25 8.25C10.75 6.25 13.75 5 16.75 5H33.25C36.25 5 39.25 6 41.75 8.25C43.75 10.5 45 13.5 45 16.75V25Z" fill="#F8F8F8"/>
</svg>
