<svg width="45" height="45" viewBox="0 0 45 45" fill="none" xmlns="http://www.w3.org/2000/svg">
<path fill-rule="evenodd" clip-rule="evenodd" d="M2.8125 22.5C2.8125 27.7215 4.88671 32.729 8.57884 36.4212C12.271 40.1133 17.2786 42.1875 22.5 42.1875C27.7215 42.1875 32.729 40.1133 36.4212 36.4212C40.1133 32.729 42.1875 27.7215 42.1875 22.5C42.1875 17.2786 40.1133 12.271 36.4212 8.57884C32.729 4.88671 27.7215 2.8125 22.5 2.8125C17.2786 2.8125 12.271 4.88671 8.57884 8.57884C4.88671 12.271 2.8125 17.2786 2.8125 22.5ZM38.8125 22.5C38.8125 26.8263 37.0939 30.9755 34.0347 34.0347C30.9755 37.0939 26.8263 38.8125 22.5 38.8125C18.1737 38.8125 14.0245 37.0939 10.9653 34.0347C7.90613 30.9755 6.1875 26.8263 6.1875 22.5C6.1875 18.1737 7.90613 14.0245 10.9653 10.9653C14.0245 7.90613 18.1737 6.1875 22.5 6.1875C26.8263 6.1875 30.9755 7.90613 34.0347 10.9653C37.0939 14.0245 38.8125 18.1737 38.8125 22.5Z" fill="#F8F8F8"/>
<path fill-rule="evenodd" clip-rule="evenodd" d="M14.0625 22.5C14.0625 32.6745 17.4172 41.0625 22.5 41.0625C27.5828 41.0625 30.9375 32.6745 30.9375 22.5C30.9375 12.3255 27.5828 3.9375 22.5 3.9375C17.4172 3.9375 14.0625 12.3255 14.0625 22.5ZM27.5625 22.5C27.5625 30.9645 24.8737 37.6875 22.5 37.6875C20.1263 37.6875 17.4375 30.9645 17.4375 22.5C17.4375 14.0355 20.1263 7.3125 22.5 7.3125C24.8737 7.3125 27.5625 14.0355 27.5625 22.5Z" fill="#F8F8F8"/>
<path d="M8.10449 12.3008L10.368 9.79877C10.593 10.0013 10.8382 10.2038 11.0992 10.3995C13.959 12.5415 18.5242 13.8645 23.508 13.8645C27.7627 13.8645 31.725 12.9038 34.6027 11.259C35.2957 10.863 35.9122 10.4333 36.4455 9.97652L38.637 12.5438C37.9395 13.14 37.1497 13.6913 36.279 14.1863C32.868 16.1393 28.3275 17.2373 23.508 17.2373C17.8335 17.2373 12.5617 15.7118 9.07424 13.0995C8.7389 12.8483 8.4153 12.5818 8.10449 12.3008Z" fill="#F8F8F8"/>
<path d="M8.10449 32.7353L10.368 35.2373C10.593 35.0325 10.8382 34.8323 11.0992 34.6365C13.959 32.4945 18.5242 31.1715 23.508 31.1715C27.7627 31.1715 31.725 32.1323 34.6027 33.777C35.2957 34.173 35.9122 34.6028 36.4455 35.0595L38.637 32.4923C37.9039 31.8724 37.1145 31.3225 36.279 30.8498C32.868 28.8968 28.3275 27.7988 23.508 27.7988C17.8335 27.7988 12.5617 29.3243 9.07424 31.9365C8.73889 32.1877 8.4153 32.4543 8.10449 32.7353Z" fill="#F8F8F8"/>
<path d="M3.9375 24.1875V20.8125H41.0625V24.1875H3.9375Z" fill="#F8F8F8"/>
</svg>
