<svg width="20" height="19" viewBox="0 0 20 19" fill="none" xmlns="http://www.w3.org/2000/svg">
<path d="M8.45551 10.8195C9.61523 11.996 11.0184 12.9043 12.5666 13.4807L14.6611 11.814C14.7232 11.7712 14.7968 11.7483 14.8722 11.7483C14.9476 11.7483 15.0212 11.7712 15.0833 11.814L18.9722 14.3195C19.1198 14.4083 19.2448 14.5302 19.3372 14.6755C19.4297 14.8209 19.4871 14.9858 19.5048 15.1571C19.5226 15.3285 19.5003 15.5016 19.4397 15.6628C19.3791 15.8241 19.2818 15.969 19.1555 16.0862L17.3333 17.8862C17.0723 18.1441 16.7516 18.3333 16.3997 18.437C16.0478 18.5407 15.6757 18.5557 15.3166 18.4807C11.7345 17.7408 8.43281 16.0082 5.78885 13.4807C3.20356 10.928 1.41455 7.68002 0.638845 4.13066C0.562215 3.77713 0.578209 3.40979 0.685276 3.06426C0.792344 2.71872 0.986854 2.4067 1.24996 2.15844L3.13885 0.336216C3.25573 0.216098 3.39828 0.12398 3.55582 0.066759C3.71335 0.00953841 3.88179 -0.0113019 4.04852 0.00579856C4.21525 0.022899 4.37595 0.0774972 4.51859 0.165505C4.66123 0.253512 4.78211 0.372649 4.87218 0.513994L7.46107 4.35288C7.50572 4.41316 7.52983 4.4862 7.52983 4.56122C7.52983 4.63623 7.50572 4.70927 7.46107 4.76955L5.75551 6.81955C6.3475 8.33674 7.26981 9.70312 8.45551 10.8195Z" fill="#F8F8F8"/>
</svg>
